<svg width="18" height="18" viewBox="0 0 18 18" fill="none" xmlns="http://www.w3.org/2000/svg">
<g id="check-mark 2">
<g id="7-Check">
<path id="Vector" d="M2.75 8.33383C2.43934 8.3347 2.13528 8.42351 1.87299 8.58997C1.6107 8.75644 1.4009 8.99377 1.26787 9.2745C1.13483 9.55523 1.084 9.86789 1.12124 10.1763C1.15849 10.4847 1.28229 10.7763 1.47833 11.0173L5.65745 16.1367C5.80645 16.3217 5.99746 16.4685 6.21459 16.5649C6.43172 16.6613 6.66872 16.7045 6.90589 16.6908C7.41314 16.6636 7.8711 16.3923 8.16308 15.9461L16.8442 1.96522C16.8456 1.9629 16.8471 1.96058 16.8486 1.9583C16.9301 1.83323 16.9036 1.58538 16.7355 1.42968C16.6893 1.38693 16.6349 1.35408 16.5755 1.33316C16.5162 1.31224 16.4531 1.3037 16.3904 1.30805C16.3276 1.31241 16.2663 1.32957 16.2104 1.35848C16.1545 1.3874 16.1051 1.42745 16.0653 1.47617C16.0622 1.48 16.059 1.48378 16.0557 1.48749L7.30068 11.3793C7.26736 11.417 7.2269 11.4476 7.18164 11.4695C7.13638 11.4914 7.08723 11.504 7.03704 11.5067C6.98685 11.5095 6.93661 11.5022 6.88926 11.4853C6.84191 11.4684 6.79837 11.4423 6.7612 11.4085L3.85558 8.76437C3.55381 8.48774 3.15938 8.33414 2.75 8.33383Z" fill="#C2A74E"/>
</g>
</g>
</svg>
