<svg width="33" height="21" viewBox="0 0 33 21" fill="none" xmlns="http://www.w3.org/2000/svg">
<g id="ArrowRight">
<path id="Vector" d="M28.0344 11.3911L22.4094 17.0161C22.2333 17.1922 21.9944 17.2911 21.7453 17.2911C21.4962 17.2911 21.2574 17.1922 21.0813 17.0161C20.9051 16.84 20.8062 16.6011 20.8062 16.352C20.8062 16.1029 20.9051 15.8641 21.0813 15.688L25.1055 11.6653H5.62109C5.37245 11.6653 5.134 11.5665 4.95818 11.3907C4.78237 11.2149 4.68359 10.9764 4.68359 10.7278C4.68359 10.4792 4.78237 10.2407 4.95818 10.0649C5.134 9.88907 5.37245 9.7903 5.62109 9.7903H25.1055L21.0828 5.7653C20.9067 5.58918 20.8078 5.35031 20.8078 5.10124C20.8078 4.85216 20.9067 4.61329 21.0828 4.43717C21.2589 4.26105 21.4978 4.16211 21.7469 4.16211C21.9959 4.16211 22.2348 4.26105 22.4109 4.43717L28.0359 10.0622C28.1234 10.1494 28.1927 10.253 28.2399 10.3671C28.2872 10.4812 28.3114 10.6035 28.3113 10.727C28.3111 10.8504 28.2866 10.9727 28.2391 11.0866C28.1916 11.2006 28.122 11.3041 28.0344 11.3911Z" fill="#212121"/>
</g>
</svg>
