<svg width="124" height="26" viewBox="0 0 124 26" fill="none" xmlns="http://www.w3.org/2000/svg">
<path d="M113.829 26.0006C112.044 26.0006 110.414 25.5414 108.94 24.6231C107.478 23.7047 106.307 22.4759 105.428 20.9367C104.561 19.3845 104.128 17.6706 104.128 15.7951C104.128 14.3723 104.38 13.0465 104.885 11.8177C105.389 10.5759 106.081 9.48941 106.961 8.55811C107.853 7.61387 108.888 6.87659 110.065 6.34627C111.242 5.81594 112.497 5.55078 113.829 5.55078C115.614 5.55078 117.237 6.00997 118.699 6.92833C120.173 7.8467 121.344 9.08197 122.211 10.6341C123.09 12.1863 123.53 13.9066 123.53 15.7951C123.53 17.205 123.278 18.5243 122.773 19.7531C122.269 20.9819 121.57 22.0685 120.678 23.0127C119.798 23.944 118.77 24.6748 117.593 25.2051C116.429 25.7355 115.174 26.0006 113.829 26.0006ZM113.829 21.965C114.903 21.965 115.866 21.6804 116.72 21.1113C117.574 20.5422 118.246 19.7919 118.738 18.8606C119.242 17.9164 119.494 16.8946 119.494 15.7951C119.494 14.6698 119.236 13.635 118.718 12.6908C118.214 11.7465 117.535 10.9963 116.681 10.4401C115.827 9.87099 114.877 9.58642 113.829 9.58642C112.768 9.58642 111.805 9.87099 110.938 10.4401C110.084 11.0092 109.405 11.7659 108.901 12.7102C108.409 13.6544 108.164 14.6827 108.164 15.7951C108.164 16.9463 108.422 17.9875 108.94 18.9189C109.457 19.8502 110.143 20.5939 110.996 21.1501C111.863 21.6934 112.807 21.965 113.829 21.965Z" fill="#0C2C48"/>
<path d="M101.149 10.1294L90.3609 21.4602H101.149V25.4959H84.5791V21.4602L95.3473 10.1294H84.5791V6.09375H101.149V10.1294Z" fill="#0C2C48"/>
<path d="M80.4379 15.3295V25.4962H76.4023V15.4071C76.4023 14.3076 76.1694 13.3116 75.7038 12.4191C75.2511 11.5137 74.6237 10.7958 73.8218 10.2655C73.0328 9.72224 72.1338 9.45061 71.1249 9.45061C70.116 9.45061 69.2299 9.72224 68.4668 10.2655C67.7166 10.7958 67.128 11.5137 66.7012 12.4191C66.2873 13.3116 66.0803 14.3076 66.0803 15.4071V25.4962H62.0447V6.09404H66.0803V8.71333C66.7529 7.73029 67.5678 6.96067 68.525 6.40447C69.4822 5.83535 70.5622 5.55078 71.7651 5.55078C73.5113 5.55078 75.0247 5.99703 76.3052 6.88953C77.5987 7.78203 78.6076 8.96556 79.332 10.4401C80.0563 11.9147 80.425 13.5445 80.4379 15.3295Z" fill="#0C2C48"/>
<path d="M49.5973 26.0006C47.8123 26.0006 46.1825 25.5414 44.708 24.6231C43.2463 23.7047 42.0757 22.4759 41.1962 20.9367C40.3296 19.3845 39.8962 17.6706 39.8962 15.7951C39.8962 14.3723 40.1485 13.0465 40.6529 11.8177C41.1574 10.5759 41.8494 9.48941 42.7289 8.55811C43.6214 7.61387 44.6562 6.87659 45.8333 6.34627C47.0104 5.81594 48.265 5.55078 49.5973 5.55078C51.0848 5.55078 52.4494 5.86121 53.6912 6.48208C54.9329 7.09002 55.9935 7.93724 56.8731 9.02376C57.7527 10.0973 58.3994 11.3391 58.8133 12.749C59.2272 14.1459 59.3501 15.6334 59.182 17.2115H44.2229C44.3911 18.104 44.7144 18.9124 45.193 19.6367C45.6845 20.3481 46.3054 20.9108 47.0556 21.3247C47.8188 21.7386 48.666 21.9521 49.5973 21.965C50.5803 21.965 51.4728 21.7192 52.2748 21.2277C53.0897 20.7362 53.7558 20.0571 54.2732 19.1905L58.3671 20.1412C57.591 21.8615 56.4204 23.2714 54.8553 24.3709C53.2902 25.4574 51.5375 26.0006 49.5973 26.0006ZM44.0871 14.1265H55.1075C54.9782 13.1952 54.6483 12.3545 54.118 11.6042C53.6006 10.8411 52.9474 10.2396 52.1584 9.79985C51.3823 9.34713 50.5286 9.12077 49.5973 9.12077C48.6789 9.12077 47.8252 9.34066 47.0362 9.78044C46.2601 10.2202 45.6134 10.8217 45.096 11.5848C44.5916 12.3351 44.2552 13.1823 44.0871 14.1265Z" fill="#0C2C48"/>
<path d="M38.1547 10.1279H34.0803L34.0609 25.4944H30.0253L30.0447 10.1279H26.9597V6.09227H30.0447L30.0253 0H34.0609L34.0803 6.09227H38.1547V10.1279Z" fill="#0C2C48"/>
<path d="M8.78136 22.0551L21.2554 22.0737L21.2554 25.9355L8.78136 25.917L8.78136 25.9345L5.50534 25.917L0.559814 25.9355L0.559814 22.0737L5.50534 22.0551L8.78136 22.0551Z" fill="#0C2C48"/>
<path d="M10.8175 19.4021C8.72556 19.4021 6.9013 18.9527 5.34478 18.0537C3.8007 17.1548 2.59906 15.9489 1.73985 14.436C0.893102 12.9122 0.469727 11.2239 0.469727 9.37122V0.000146959H4.35482V9.37122C4.35482 10.5771 4.60387 11.6844 5.10196 12.6929C5.6125 13.6905 6.34718 14.4908 7.306 15.0938C8.27728 15.6858 9.44779 15.9818 10.8175 15.9818C12.2246 15.9818 13.4076 15.6858 14.3664 15.0938C15.3252 14.4908 16.0475 13.6905 16.5331 12.6929C17.0312 11.6844 17.2802 10.5771 17.2802 9.37122V0.000146959L21.1653 0.00070283V9.37122C21.1653 10.7635 20.9225 12.0681 20.4369 13.2849C19.9512 14.4908 19.2539 15.5542 18.3449 16.4751C17.4359 17.3959 16.3463 18.114 15.0762 18.6293C13.8061 19.1445 12.3865 19.4021 10.8175 19.4021Z" fill="#0C2C48"/>
</svg>
