<svg width="253" height="82" viewBox="0 0 253 82" fill="none" xmlns="http://www.w3.org/2000/svg">
  <path d="M252.792 56.942C252.894 56.5528 252.767 56.1935 252.716 55.8342C252.666 55.7744 252.64 55.7145 252.59 55.6546C252.437 55.2355 252.412 54.7565 252.159 54.3972C252.108 53.8284 251.728 53.4991 251.398 53.1698C251.094 52.6608 250.79 52.092 250.892 51.4633C251.069 50.4454 250.841 49.5173 250.511 48.6192C250.283 47.9606 249.979 47.3019 250.664 46.7631C250.74 46.7032 250.714 46.5535 250.638 46.4637C250.537 46.284 250.461 46.1044 250.359 45.9248C250.081 45.1763 249.65 44.5177 249.168 43.9489C248.788 43.4998 248.509 42.931 247.952 42.6915C247.876 42.5717 247.775 42.5119 247.648 42.5119C247.673 42.6017 247.673 42.6915 247.673 42.7514C247.673 42.6616 247.673 42.6017 247.648 42.5119C247.344 42.2424 247.166 41.8832 247.014 41.464C246.786 40.8054 246.634 40.057 246.153 39.548C246.077 39.1289 245.798 38.8894 245.544 38.6499C245.443 38.5002 245.342 38.3206 245.215 38.2008C244.353 37.2428 243.162 36.674 242.807 35.1471C242.605 34.728 242.427 34.3089 242.225 33.8897C241.616 32.7521 240.831 31.8839 239.842 31.1953C239.766 30.9858 239.716 30.6864 239.589 30.5666C238.93 30.0278 239.006 29.2194 239.006 28.441C239.006 27.5728 238.905 26.7346 238.651 25.9263C238.651 25.8963 238.651 25.8664 238.626 25.8065C238.423 24.4294 238.17 23.0822 237.41 21.9445C237.359 21.4655 237.08 21.1661 236.852 20.8368C236.751 20.5374 236.523 20.3877 236.345 20.1782C235.788 19.3998 235.179 18.7711 234.267 18.7411C234.115 18.7411 233.963 18.7412 233.811 18.7711C233.659 18.6813 233.583 18.4418 233.355 18.5615C233.203 18.4717 233.051 18.5316 232.899 18.5915C232.392 18.4418 231.885 18.2921 231.378 18.2023C229.934 17.873 228.438 17.8131 226.969 17.6933C226.411 17.6634 226.31 17.4538 226.411 16.8251C226.512 16.0467 226.538 15.2683 226.614 14.49H226.69L226.74 14.4301C226.791 14.3702 226.842 14.3403 226.893 14.2804C227.045 14.0708 226.969 13.8613 226.969 13.6218C226.943 13.5918 226.943 13.5619 226.918 13.5319C227.121 13.1128 226.867 12.8134 226.69 12.4841C226.436 12.0351 226.259 11.586 226.791 11.2267C227.019 11.077 227.045 10.8076 226.918 10.5382C226.715 10.149 226.664 9.58014 226.158 9.46039C225.955 9.34064 225.803 9.10113 225.549 9.13107C225.397 9.07119 225.245 9.01132 225.093 8.95144C224.586 8.41256 224.13 7.84374 223.75 7.15516C223.522 6.52647 223.193 5.95765 222.711 5.53852C222.28 4.99964 221.748 4.61044 221.191 4.31106C221.114 4.22125 221.013 4.13143 220.886 4.19131C219.619 3.38299 218.251 3.20336 216.832 3.29317C214.12 2.69441 211.383 2.54473 208.621 2.72435C208.342 2.69442 208.063 2.66447 207.759 2.66447C204.819 2.42497 201.905 2.03578 198.965 2.03578C198.078 1.76634 197.166 1.85616 196.279 1.85616C196.051 1.64659 195.798 1.70647 195.544 1.73641C194.176 1.76634 192.807 1.82622 191.439 1.82622C189.031 1.85615 186.624 1.85616 184.242 1.8861C184.09 1.8861 183.937 1.8861 183.785 1.8861C183.076 1.8861 182.392 1.8861 181.682 1.8861C181.479 1.8861 181.277 1.8861 181.074 1.8861C181.023 1.8861 180.972 1.8861 180.922 1.8861C179.173 1.73641 177.424 1.94596 175.651 2.06572C174.688 1.9759 173.75 2.00584 172.787 2.06572C172.635 2.06572 172.483 2.03578 172.331 2.03578C167.947 2.09566 163.537 2.33516 159.153 2.42497C158.164 2.45491 157.151 2.72435 156.162 2.72435C154.515 2.72435 152.868 2.51479 151.246 2.72435C151.145 2.72435 151.043 2.6046 150.942 2.6046C143.01 3.14349 135.027 3.05367 127.095 3.7123C121.672 4.16137 116.248 3.89193 110.825 3.44286C102.716 2.78423 94.5808 2.30522 86.4713 1.91603C83.3289 1.76634 80.1864 1.61665 77.044 1.46696C75.3968 1.37714 73.7748 1.22745 72.1276 1.31727C72.0262 1.28733 71.9502 1.19752 71.8488 1.19752C68.2756 0.987952 64.7277 0.778386 61.1544 0.598759C55.123 0.299379 49.0915 0.119752 43.0854 0C42.4012 0 41.7169 1.82013e-06 41.0327 0.329319C40.4752 0.598761 39.8923 0.688574 39.2588 0.628698C36.5218 0.359257 33.7595 0.987954 30.9972 0.329319C29.8061 0.0299398 28.615 0.868206 27.3226 0.688578C25.9794 0.479012 24.6363 0.598759 23.2678 0.598759C21.1644 0.389193 19.061 0.209567 16.9323 0.628698C16.5775 0.778388 16.1973 0.688578 15.8932 0.987957C15.5384 1.13765 15.5891 1.4969 15.6398 1.79628C15.6905 2.06572 15.7665 2.3651 15.5638 2.54472C14.7782 3.2333 14.7275 4.31107 14.5754 5.44871C14.5754 4.67032 14.6008 4.01169 14.5501 3.35305C14.4994 2.93392 14.5501 2.45491 14.0432 2.30522C13.8658 2.45491 13.7138 2.6046 13.7391 2.87404C13.8405 4.43082 13.6631 6.04746 14.3727 7.48448C14.3727 7.78386 14.3727 8.0533 14.3727 8.35268C14.322 8.682 14.4994 8.86163 14.6515 9.0712C15.0823 9.28077 15.5638 9.22088 15.9186 9.69989C16.5775 10.5681 16.9576 10.4483 17.4138 9.43045C17.5658 9.10113 17.6925 8.74188 17.6672 8.32275C17.9206 8.05331 18.1994 7.90362 18.5542 7.96349C19.0357 7.99343 19.4918 7.99343 19.9226 7.72399C20.6069 7.27492 20.835 7.39467 21.2658 8.35268C21.2151 8.89156 21.2658 9.40051 21.5192 9.84958C21.874 10.4483 21.6966 10.7777 21.2151 11.077C20.835 11.3165 20.4802 11.6159 20.835 12.2446C20.9363 12.2446 21.0377 12.2446 21.1391 12.2446C21.4432 12.3045 21.7219 12.3943 22.026 12.4542C22.0514 12.4242 22.0767 12.3943 22.1274 12.3943C22.2541 12.3943 22.3808 12.3943 22.5075 12.3943C22.7103 12.3943 22.913 12.3943 23.1158 12.3943C23.3692 12.3943 23.5973 12.4242 23.8507 12.4242C23.876 12.4542 23.9014 12.5141 23.9267 12.544C24.1294 12.6937 24.3322 12.7536 24.5349 12.7536H24.5096C24.2308 12.7835 23.952 12.6937 23.6986 12.5739C22.8877 12.3045 22.1021 12.8134 21.2911 12.6039C17.4138 12.5141 13.5617 12.3943 9.68438 12.3045C7.96111 12.2746 6.41523 12.8434 5.0721 14.1307C4.69196 14.49 4.33717 14.9091 3.9317 15.1785C3.24746 15.5677 3.24746 16.1665 3.42485 16.8551C3.37417 17.1544 3.34883 17.4239 3.34883 17.7233C3.34883 17.7532 3.34883 17.7831 3.34883 17.8131C3.37417 18.5316 3.55156 19.1902 3.70362 19.8788C3.77964 20.3578 3.85567 20.8368 3.9317 21.3458C3.9317 21.4954 3.95704 21.6751 4.00772 21.8547C4.08375 22.5133 3.9317 23.2019 4.28649 23.8007C4.2358 24.3695 4.36251 24.9084 4.5906 25.4173C4.5906 25.8963 4.74265 26.2855 5.02141 26.6448C5.09744 27.0639 5.3762 27.3034 5.62962 27.5429C5.70565 27.6627 5.78168 27.7525 5.83236 27.8722C6.33921 28.5309 6.9981 28.92 7.73303 29.1595C8.51864 29.4889 9.32959 29.5787 10.1659 29.4889C13.4097 29.7583 16.6535 29.7284 19.8973 29.9679C19.1117 30.4469 18.3261 30.8361 17.7685 31.6145C17.3631 32.1833 16.8309 32.2432 16.2227 32.1833C15.4371 32.0935 14.6261 32.1234 13.8152 32.0935C11.7624 31.8839 9.68438 31.7941 7.63166 31.7342C6.79537 31.4947 5.93373 31.5546 5.0721 31.5546C4.31183 31.4049 3.57691 31.4348 2.81664 31.7342L2.7913 31.9438V31.7642C2.53787 31.7941 2.28445 31.6743 2.05637 31.8839C1.72692 32.3928 1.75227 32.9916 1.60021 33.5904C1.4735 34.1592 1.32145 34.5783 0.839946 34.8777C0.459813 35.1172 0.307759 35.5962 0.231733 36.1052C-0.0216894 37.6619 -0.0723738 39.2187 0.105022 40.8054C0.130364 40.8354 0.181048 40.8353 0.231733 40.8353C0.333102 41.0449 0.459814 41.1946 0.662552 41.2245C0.713236 41.2844 0.76392 41.3443 0.814605 41.4042C0.839947 41.5239 0.865289 41.5838 0.966657 41.5539C1.42282 42.4221 2.20843 42.6316 2.91801 42.9609C4.86936 43.6794 6.92208 43.6196 8.92411 43.8591C9.10151 44.398 9.12685 44.9069 8.89877 45.4159C8.7974 45.5356 8.72137 45.6553 8.62001 45.7751C8.46795 45.805 8.39193 45.9547 8.3159 46.1044C7.75837 46.7032 7.22618 47.3319 6.66866 47.9306C6.61797 47.9905 6.56729 48.0205 6.5166 48.0803C5.90839 48.5593 5.45223 49.218 4.99607 49.8467C3.95704 51.0442 3.85567 51.4633 4.4132 52.4213C4.4132 52.5411 4.43854 52.6309 4.43854 52.7506C4.36251 53.0201 4.43854 53.2596 4.5906 53.4692C4.66662 53.9781 5.02141 54.038 5.35086 54.1877C5.5536 54.3074 5.75634 54.4272 5.95907 54.517C6.26318 54.6367 6.59263 54.6667 6.92208 54.6966C8.03714 54.7565 9.07617 54.2475 10.1659 54.1877C10.5714 54.2475 10.9768 54.0978 11.357 54.008C12.0665 54.0679 12.7761 53.9781 13.4604 54.2176C13.6124 54.2775 13.7645 54.3374 13.8912 54.3972C14.5247 54.8762 15.2343 54.6667 15.9186 54.6667C17.4644 54.6966 18.985 54.8164 20.5308 54.5769C21.2404 54.6367 21.95 54.3673 22.6849 54.5469C22.5329 54.996 22.2795 55.3253 22.4569 55.8043C22.5582 56.0438 22.5075 56.2534 22.3808 56.4629C21.7473 57.6305 21.4432 58.9777 20.9617 60.2052C20.7589 60.4148 20.6322 60.6543 20.5308 60.9536C20.1761 61.4326 19.7959 61.8817 19.4411 62.3607C19.2131 62.72 18.7822 62.8098 18.5795 63.2589C18.3261 63.4984 18.0727 63.7379 17.8192 63.9774C17.135 64.3666 17.211 65.0851 17.2364 65.7736C17.211 65.8335 17.211 65.9233 17.2364 65.9832C17.3631 66.4921 17.7939 66.6119 18.098 66.8813C18.5795 67.3903 19.1624 67.5999 19.7959 67.7196C20.6576 67.9292 21.5192 68.1387 22.3808 67.7495C22.9637 67.5999 23.5466 67.4502 24.1294 67.2705C24.2055 67.2705 24.2815 67.2406 24.3575 67.2107C24.7123 67.2406 25.0418 67.1807 25.3712 67.031C26.8664 66.9113 28.3616 66.7915 29.8568 66.6718C30.2876 66.7317 30.6931 66.7915 31.1492 66.8514C30.9465 67.1807 30.7944 67.4801 30.6424 67.7495C29.8821 68.9471 29.9582 70.923 30.7691 72.36C30.8705 72.7791 31.0986 73.1384 31.352 73.4378C31.4533 73.6174 31.5547 73.797 31.6561 73.9766C31.6814 74.2461 31.6814 74.5155 31.7575 74.755C32.0869 75.8627 32.0616 77.2099 33.278 77.6889C33.4047 78.0482 33.6328 78.3176 33.9115 78.5571C34.5451 79.5451 35.3307 80.2037 36.4458 80.2037C36.5978 80.3834 36.7499 80.3235 36.9273 80.2935C37.1807 80.3534 37.4088 80.4133 37.6622 80.4432C39.3094 80.8025 40.9313 81.2515 42.6293 81.1917C43.4402 81.3114 44.2512 81.4911 45.0621 81.521C47.0642 81.6108 49.0408 81.7306 51.0429 81.7904C51.0429 81.8503 51.0429 82 51.0682 82C52.5634 82 54.0839 82 55.5791 82C56.8716 82 58.1894 82 59.4818 82C59.7859 81.7006 60.2674 81.9401 60.5716 81.6108C62.4722 81.4312 64.3729 81.012 66.2989 80.9522C72.381 80.7725 78.4885 81.042 84.5706 81.0121C84.8494 81.2216 85.1535 81.1318 85.4576 81.1318C89.0055 81.2216 92.5534 81.1318 96.1267 81.1917C100.181 81.2515 104.236 81.1617 108.291 81.1019C108.468 81.1019 108.62 81.042 108.798 80.9821C113.182 80.8923 117.566 80.8025 121.976 80.6827C122.635 80.6528 123.319 80.533 123.978 80.4432C124.155 80.4432 124.333 80.4432 124.51 80.4133C127.678 79.9942 130.846 79.8445 134.013 79.9642C137.054 80.084 140.095 79.9942 143.136 80.0241C145.113 80.0241 147.065 80.1139 149.041 80.1139C150.764 80.1139 152.488 80.054 154.211 80.1139C155.909 80.2037 157.607 80.084 159.305 80.1139C161.003 80.1439 162.701 80.2636 164.399 80.2037C167.034 80.1439 169.695 79.9942 172.331 79.9043C174.561 79.8445 176.766 79.7846 178.97 79.5451C179.705 79.5152 180.466 79.605 181.201 79.575C183.481 79.4553 185.737 79.2757 188.018 79.2757C188.17 79.2757 188.322 79.2757 188.448 79.2757C188.524 79.2757 188.6 79.1858 188.676 79.1559C188.905 79.1559 189.107 79.096 189.335 79.0661C189.487 79.0661 189.639 79.0362 189.792 79.0362C191.768 78.9763 193.72 78.9164 195.696 78.8266C196.051 78.8266 196.406 78.8565 196.735 78.6769C197.42 78.617 198.129 78.5571 198.813 78.4973C199.422 78.5272 200.03 78.4973 200.638 78.3176C200.917 78.2877 201.221 78.2877 201.5 78.2578C201.5 78.1679 201.525 78.0781 201.55 78.0183C201.55 78.1081 201.525 78.1979 201.5 78.2578C201.652 78.2578 201.804 78.2578 201.93 78.2578C202.235 78.1979 202.539 78.138 202.817 78.1081C202.843 78.0781 202.893 78.0482 202.919 77.9883C203.046 78.0482 203.147 78.0183 203.274 77.9883C203.451 77.8686 203.476 77.6889 203.476 77.4794C203.451 77.0004 203.248 76.6711 203.02 76.3118C202.741 75.8627 202.767 75.5334 203.324 75.5334C203.73 75.5334 204.059 75.264 204.439 75.2041C204.49 76.9105 205.022 77.3297 206.213 76.5513C206.745 76.222 206.898 76.6411 207.176 76.9106C207.354 76.9106 207.531 76.9704 207.632 76.7309C208.317 76.4914 208.95 76.192 209.584 75.8328C209.685 75.7729 209.787 75.713 209.888 75.6532C210.04 75.5933 210.167 75.5035 210.319 75.4436C210.445 75.4735 210.547 75.3837 210.623 75.2939C210.8 75.2939 210.952 75.3837 211.079 75.234C211.51 75.1143 211.915 75.0843 212.295 74.785C212.397 74.785 212.473 74.5455 212.574 74.4856C212.701 74.4856 212.802 74.3958 212.878 74.2461C213.36 74.0066 213.182 73.6174 213.03 73.1983C212.473 71.6115 211.459 70.444 210.344 69.3961C210.141 69.0968 209.863 68.977 209.558 68.8872C209.457 68.8273 209.381 68.7375 209.28 68.6776C209.001 68.2884 208.621 68.1088 208.215 67.9891C207.48 67.7495 206.695 68.1387 205.96 67.9292V68.1986C205.706 68.1986 205.428 67.7196 205.2 68.0489C204.439 68.1986 203.73 67.6597 202.969 67.7495C202.716 67.6897 202.463 67.5699 202.209 67.54C202.133 67.54 202.082 67.51 202.006 67.51C201.88 67.4801 201.728 67.4502 201.601 67.4502C201.348 67.1807 201.5 66.8813 201.55 66.582C201.576 66.3125 201.702 66.073 201.55 65.8934C201.069 65.3545 201.195 64.6061 201.449 64.3067C201.474 64.3067 201.5 64.3067 201.525 64.3067C201.804 64.6061 202.057 64.3067 202.336 64.2468C202.437 64.2468 202.564 64.1869 202.665 64.157C202.969 64.157 203.274 64.1271 203.552 64.0971C203.755 64.0971 203.958 64.0971 204.161 64.1869C204.693 64.1271 205.2 64.2468 205.732 64.2767C207.708 64.4564 209.685 64.4564 211.662 64.6659C213.106 64.8156 214.576 64.8456 216.046 64.6061C217.617 64.5462 219.163 64.8456 220.709 65.115C223.725 65.624 226.766 66.073 229.782 66.552C230.77 66.7017 231.733 66.8813 232.721 67.061C232.873 67.0909 233.025 67.0909 233.152 67.1209C234.166 67.2406 235.179 67.3304 236.193 67.4502C237.257 67.54 238.322 67.7795 239.412 67.54C239.665 67.4801 239.944 67.4502 239.944 67.061C239.918 66.3125 240.07 65.5341 239.817 64.7857C240.197 64.157 240.704 63.648 240.856 62.8697C242.047 62.7799 243.213 63.169 244.429 63.2289C245.899 63.4385 247.369 63.678 248.814 63.8876C248.839 63.9175 248.89 63.9474 248.94 63.9474C249.219 64.1869 249.548 64.0971 249.853 64.0672C249.929 63.9774 250.005 63.8277 249.929 63.7678C249.346 62.7799 250.03 62.3008 250.511 61.762C250.74 61.4925 251.018 61.283 251.297 61.0734C251.753 60.7141 251.88 60.2651 251.88 59.5765C251.855 58.4389 252.235 58.1095 252.995 58.0497C252.995 57.8102 252.995 57.5706 252.995 57.3311C253.046 57.3012 252.691 57.2713 252.792 56.942ZM9.20288 29.3392C9.20288 29.3691 9.20288 29.3691 9.20288 29.3991H9.17753C9.17753 29.3691 9.17754 29.3392 9.20288 29.3392ZM197.724 67.5999C197.749 67.5999 197.774 67.5999 197.749 67.5699C197.724 67.4502 197.85 67.6597 197.749 67.6298C197.47 67.7196 197.191 67.6897 196.938 67.6597C197.191 67.6897 197.47 67.6298 197.724 67.5999ZM193.72 67.6597C193.796 67.54 193.821 67.3903 193.872 67.2705C194.1 67.3005 194.328 67.2705 194.531 67.0909C194.556 67.1508 194.581 67.1807 194.632 67.2406C194.987 67.4801 195.367 67.51 195.747 67.3005C195.772 67.2705 195.772 67.2406 195.772 67.2107C195.772 67.2107 195.772 67.2107 195.772 67.2406C195.848 67.2406 195.95 67.2705 196.026 67.2705C196.051 67.2705 196.051 67.2705 196.076 67.2705C196.076 67.3005 196.051 67.3304 196.051 67.3604C196.203 67.51 196.38 67.5999 196.533 67.6597C196.254 67.6298 196 67.5999 195.722 67.6597C195.646 67.7196 195.62 67.7495 195.595 67.8094C194.987 67.6897 194.378 67.8693 193.796 67.8992L193.77 67.8693C193.745 67.8394 193.72 67.8094 193.694 67.7795C193.694 67.7196 193.694 67.6897 193.72 67.6597ZM157.201 2.57466C157.176 2.6046 157.151 2.60461 157.125 2.63454V2.6046L157.1 2.57466C157.125 2.57466 157.176 2.57466 157.201 2.57466ZM190.957 78.8565C190.957 78.8865 190.957 78.8865 190.957 78.8565V78.8565Z" fill="#EBEBEB"/>
</svg>
